<svg id="visual" viewBox="0 0 900 600" width="900" height="600" xmlns="http://www.w3.org/2000/svg" xmlns:xlink="http://www.w3.org/1999/xlink" version="1.1"><rect x="0" y="0" width="900" height="600" fill="#E9F1FA"></rect><defs><linearGradient id="grad1_0" x1="33.3%" y1="0%" x2="100%" y2="100%"><stop offset="20%" stop-color="#00abe4" stop-opacity="1"></stop><stop offset="80%" stop-color="#00abe4" stop-opacity="1"></stop></linearGradient></defs><defs><linearGradient id="grad1_1" x1="33.3%" y1="0%" x2="100%" y2="100%"><stop offset="20%" stop-color="#00abe4" stop-opacity="1"></stop><stop offset="80%" stop-color="#51b4e8" stop-opacity="1"></stop></linearGradient></defs><defs><linearGradient id="grad1_2" x1="33.3%" y1="0%" x2="100%" y2="100%"><stop offset="20%" stop-color="#74beec" stop-opacity="1"></stop><stop offset="80%" stop-color="#51b4e8" stop-opacity="1"></stop></linearGradient></defs><defs><linearGradient id="grad1_3" x1="33.3%" y1="0%" x2="100%" y2="100%"><stop offset="20%" stop-color="#74beec" stop-opacity="1"></stop><stop offset="80%" stop-color="#91c8ef" stop-opacity="1"></stop></linearGradient></defs><defs><linearGradient id="grad1_4" x1="33.3%" y1="0%" x2="100%" y2="100%"><stop offset="20%" stop-color="#a9d2f2" stop-opacity="1"></stop><stop offset="80%" stop-color="#91c8ef" stop-opacity="1"></stop></linearGradient></defs><defs><linearGradient id="grad1_5" x1="33.3%" y1="0%" x2="100%" y2="100%"><stop offset="20%" stop-color="#a9d2f2" stop-opacity="1"></stop><stop offset="80%" stop-color="#c0dcf5" stop-opacity="1"></stop></linearGradient></defs><defs><linearGradient id="grad1_6" x1="33.3%" y1="0%" x2="100%" y2="100%"><stop offset="20%" stop-color="#d5e6f8" stop-opacity="1"></stop><stop offset="80%" stop-color="#c0dcf5" stop-opacity="1"></stop></linearGradient></defs><defs><linearGradient id="grad1_7" x1="33.3%" y1="0%" x2="100%" y2="100%"><stop offset="20%" stop-color="#d5e6f8" stop-opacity="1"></stop><stop offset="80%" stop-color="#e9f1fa" stop-opacity="1"></stop></linearGradient></defs><defs><linearGradient id="grad2_0" x1="0%" y1="0%" x2="66.7%" y2="100%"><stop offset="20%" stop-color="#00abe4" stop-opacity="1"></stop><stop offset="80%" stop-color="#00abe4" stop-opacity="1"></stop></linearGradient></defs><defs><linearGradient id="grad2_1" x1="0%" y1="0%" x2="66.7%" y2="100%"><stop offset="20%" stop-color="#51b4e8" stop-opacity="1"></stop><stop offset="80%" stop-color="#00abe4" stop-opacity="1"></stop></linearGradient></defs><defs><linearGradient id="grad2_2" x1="0%" y1="0%" x2="66.7%" y2="100%"><stop offset="20%" stop-color="#51b4e8" stop-opacity="1"></stop><stop offset="80%" stop-color="#74beec" stop-opacity="1"></stop></linearGradient></defs><defs><linearGradient id="grad2_3" x1="0%" y1="0%" x2="66.7%" y2="100%"><stop offset="20%" stop-color="#91c8ef" stop-opacity="1"></stop><stop offset="80%" stop-color="#74beec" stop-opacity="1"></stop></linearGradient></defs><defs><linearGradient id="grad2_4" x1="0%" y1="0%" x2="66.7%" y2="100%"><stop offset="20%" stop-color="#91c8ef" stop-opacity="1"></stop><stop offset="80%" stop-color="#a9d2f2" stop-opacity="1"></stop></linearGradient></defs><defs><linearGradient id="grad2_5" x1="0%" y1="0%" x2="66.7%" y2="100%"><stop offset="20%" stop-color="#c0dcf5" stop-opacity="1"></stop><stop offset="80%" stop-color="#a9d2f2" stop-opacity="1"></stop></linearGradient></defs><defs><linearGradient id="grad2_6" x1="0%" y1="0%" x2="66.7%" y2="100%"><stop offset="20%" stop-color="#c0dcf5" stop-opacity="1"></stop><stop offset="80%" stop-color="#d5e6f8" stop-opacity="1"></stop></linearGradient></defs><defs><linearGradient id="grad2_7" x1="0%" y1="0%" x2="66.7%" y2="100%"><stop offset="20%" stop-color="#e9f1fa" stop-opacity="1"></stop><stop offset="80%" stop-color="#d5e6f8" stop-opacity="1"></stop></linearGradient></defs><g transform="translate(900, 0)"><path d="M0 486.7C-41.4 456.8 -82.8 426.9 -136 418.5C-189.1 410 -253.9 422.9 -286.1 393.8C-318.3 364.7 -317.8 293.5 -339.8 246.9C-361.8 200.3 -406.4 178.3 -434.6 141.2C-462.9 104.2 -474.8 52.1 -486.7 0L0 0Z" fill="#dfecf9"></path><path d="M0 425.9C-36.2 399.7 -72.5 373.6 -119 366.2C-165.5 358.7 -222.2 370.1 -250.3 344.6C-278.5 319.1 -278 256.8 -297.3 216C-316.6 175.2 -355.6 156 -380.3 123.6C-405 91.2 -415.5 45.6 -425.9 0L0 0Z" fill="#cbe1f6"></path><path d="M0 365.1C-31.1 342.6 -62.1 320.2 -102 313.8C-141.8 307.5 -190.5 317.2 -214.6 295.3C-238.7 273.5 -238.3 220.1 -254.8 185.2C-271.4 150.2 -304.8 133.7 -326 105.9C-347.2 78.1 -356.1 39.1 -365.1 0L0 0Z" fill="#b5d7f4"></path><path d="M0 304.2C-25.9 285.5 -51.8 266.8 -85 261.5C-118.2 256.2 -158.7 264.3 -178.8 246.1C-198.9 227.9 -198.6 183.4 -212.4 154.3C-226.1 125.2 -254 111.4 -271.6 88.3C-289.3 65.1 -296.8 32.6 -304.2 0L0 0Z" fill="#9dcdf1"></path><path d="M0 243.4C-20.7 228.4 -41.4 213.5 -68 209.2C-94.5 205 -127 211.5 -143.1 196.9C-159.1 182.3 -158.9 146.7 -169.9 123.4C-180.9 100.1 -203.2 89.1 -217.3 70.6C-231.4 52.1 -237.4 26 -243.4 0L0 0Z" fill="#83c3ed"></path><path d="M0 182.5C-15.5 171.3 -31.1 160.1 -51 156.9C-70.9 153.7 -95.2 158.6 -107.3 147.7C-119.4 136.7 -119.2 110.1 -127.4 92.6C-135.7 75.1 -152.4 66.9 -163 53C-173.6 39.1 -178.1 19.5 -182.5 0L0 0Z" fill="#64b9ea"></path><path d="M0 121.7C-10.4 114.2 -20.7 106.7 -34 104.6C-47.3 102.5 -63.5 105.7 -71.5 98.4C-79.6 91.2 -79.4 73.4 -84.9 61.7C-90.5 50.1 -101.6 44.6 -108.7 35.3C-115.7 26 -118.7 13 -121.7 0L0 0Z" fill="#38b0e6"></path><path d="M0 60.8C-5.2 57.1 -10.4 53.4 -17 52.3C-23.6 51.2 -31.7 52.9 -35.8 49.2C-39.8 45.6 -39.7 36.7 -42.5 30.9C-45.2 25 -50.8 22.3 -54.3 17.7C-57.9 13 -59.4 6.5 -60.8 0L0 0Z" fill="#00abe4"></path></g><g transform="translate(0, 600)"><path d="M0 -486.7C46.3 -471 92.6 -455.2 144.3 -444.1C196 -433.1 253.1 -426.7 286.1 -393.8C319.1 -360.9 328 -301.4 355.2 -258C382.3 -214.7 427.7 -187.4 452.7 -147.1C477.7 -106.8 482.2 -53.4 486.7 0L0 0Z" fill="#dfecf9"></path><path d="M0 -425.9C40.5 -412.1 81 -398.3 126.3 -388.6C171.5 -378.9 221.5 -373.4 250.3 -344.6C279.2 -315.8 287 -263.7 310.8 -225.8C334.5 -187.8 374.3 -164 396.1 -128.7C418 -93.4 421.9 -46.7 425.9 0L0 0Z" fill="#cbe1f6"></path><path d="M0 -365.1C34.7 -353.2 69.5 -341.4 108.2 -333.1C147 -324.8 189.8 -320 214.6 -295.3C239.3 -270.7 246 -226.1 266.4 -193.5C286.7 -161 320.8 -140.6 339.5 -110.3C358.3 -80.1 361.7 -40 365.1 0L0 0Z" fill="#b5d7f4"></path><path d="M0 -304.2C28.9 -294.4 57.9 -284.5 90.2 -277.6C122.5 -270.7 158.2 -266.7 178.8 -246.1C199.4 -225.5 205 -188.4 222 -161.3C238.9 -134.2 267.3 -117.1 282.9 -91.9C298.5 -66.7 301.4 -33.4 304.2 0L0 0Z" fill="#9dcdf1"></path><path d="M0 -243.4C23.2 -235.5 46.3 -227.6 72.2 -222.1C98 -216.5 126.6 -213.4 143.1 -196.9C159.6 -180.4 164 -150.7 177.6 -129C191.2 -107.3 213.9 -93.7 226.4 -73.5C238.8 -53.4 241.1 -26.7 243.4 0L0 0Z" fill="#83c3ed"></path><path d="M0 -182.5C17.4 -176.6 34.7 -170.7 54.1 -166.6C73.5 -162.4 94.9 -160 107.3 -147.7C119.7 -135.3 123 -113 133.2 -96.8C143.4 -80.5 160.4 -70.3 169.8 -55.2C179.1 -40 180.8 -20 182.5 0L0 0Z" fill="#64b9ea"></path><path d="M0 -121.7C11.6 -117.7 23.2 -113.8 36.1 -111C49 -108.3 63.3 -106.7 71.5 -98.4C79.8 -90.2 82 -75.4 88.8 -64.5C95.6 -53.7 106.9 -46.9 113.2 -36.8C119.4 -26.7 120.6 -13.3 121.7 0L0 0Z" fill="#38b0e6"></path><path d="M0 -60.8C5.8 -58.9 11.6 -56.9 18 -55.5C24.5 -54.1 31.6 -53.3 35.8 -49.2C39.9 -45.1 41 -37.7 44.4 -32.3C47.8 -26.8 53.5 -23.4 56.6 -18.4C59.7 -13.3 60.3 -6.7 60.8 0L0 0Z" fill="#00abe4"></path></g></svg>