<svg id="visual" viewBox="0 0 900 600" width="900" height="600" xmlns="http://www.w3.org/2000/svg" xmlns:xlink="http://www.w3.org/1999/xlink" version="1.1"><rect x="0" y="0" width="900" height="600" fill="#00090f"></rect><defs><linearGradient id="grad1_0" x1="33.3%" y1="0%" x2="100%" y2="100%"><stop offset="20%" stop-color="#00abe4" stop-opacity="1"></stop><stop offset="80%" stop-color="#00abe4" stop-opacity="1"></stop></linearGradient></defs><defs><linearGradient id="grad1_1" x1="33.3%" y1="0%" x2="100%" y2="100%"><stop offset="20%" stop-color="#00abe4" stop-opacity="1"></stop><stop offset="80%" stop-color="#1291c2" stop-opacity="1"></stop></linearGradient></defs><defs><linearGradient id="grad1_2" x1="33.3%" y1="0%" x2="100%" y2="100%"><stop offset="20%" stop-color="#1879a0" stop-opacity="1"></stop><stop offset="80%" stop-color="#1291c2" stop-opacity="1"></stop></linearGradient></defs><defs><linearGradient id="grad1_3" x1="33.3%" y1="0%" x2="100%" y2="100%"><stop offset="20%" stop-color="#1879a0" stop-opacity="1"></stop><stop offset="80%" stop-color="#1a6180" stop-opacity="1"></stop></linearGradient></defs><defs><linearGradient id="grad1_4" x1="33.3%" y1="0%" x2="100%" y2="100%"><stop offset="20%" stop-color="#184a61" stop-opacity="1"></stop><stop offset="80%" stop-color="#1a6180" stop-opacity="1"></stop></linearGradient></defs><defs><linearGradient id="grad1_5" x1="33.3%" y1="0%" x2="100%" y2="100%"><stop offset="20%" stop-color="#184a61" stop-opacity="1"></stop><stop offset="80%" stop-color="#153444" stop-opacity="1"></stop></linearGradient></defs><defs><linearGradient id="grad1_6" x1="33.3%" y1="0%" x2="100%" y2="100%"><stop offset="20%" stop-color="#0f2029" stop-opacity="1"></stop><stop offset="80%" stop-color="#153444" stop-opacity="1"></stop></linearGradient></defs><defs><linearGradient id="grad1_7" x1="33.3%" y1="0%" x2="100%" y2="100%"><stop offset="20%" stop-color="#0f2029" stop-opacity="1"></stop><stop offset="80%" stop-color="#00090f" stop-opacity="1"></stop></linearGradient></defs><defs><linearGradient id="grad2_0" x1="0%" y1="0%" x2="66.7%" y2="100%"><stop offset="20%" stop-color="#00abe4" stop-opacity="1"></stop><stop offset="80%" stop-color="#00abe4" stop-opacity="1"></stop></linearGradient></defs><defs><linearGradient id="grad2_1" x1="0%" y1="0%" x2="66.7%" y2="100%"><stop offset="20%" stop-color="#1291c2" stop-opacity="1"></stop><stop offset="80%" stop-color="#00abe4" stop-opacity="1"></stop></linearGradient></defs><defs><linearGradient id="grad2_2" x1="0%" y1="0%" x2="66.7%" y2="100%"><stop offset="20%" stop-color="#1291c2" stop-opacity="1"></stop><stop offset="80%" stop-color="#1879a0" stop-opacity="1"></stop></linearGradient></defs><defs><linearGradient id="grad2_3" x1="0%" y1="0%" x2="66.7%" y2="100%"><stop offset="20%" stop-color="#1a6180" stop-opacity="1"></stop><stop offset="80%" stop-color="#1879a0" stop-opacity="1"></stop></linearGradient></defs><defs><linearGradient id="grad2_4" x1="0%" y1="0%" x2="66.7%" y2="100%"><stop offset="20%" stop-color="#1a6180" stop-opacity="1"></stop><stop offset="80%" stop-color="#184a61" stop-opacity="1"></stop></linearGradient></defs><defs><linearGradient id="grad2_5" x1="0%" y1="0%" x2="66.7%" y2="100%"><stop offset="20%" stop-color="#153444" stop-opacity="1"></stop><stop offset="80%" stop-color="#184a61" stop-opacity="1"></stop></linearGradient></defs><defs><linearGradient id="grad2_6" x1="0%" y1="0%" x2="66.7%" y2="100%"><stop offset="20%" stop-color="#153444" stop-opacity="1"></stop><stop offset="80%" stop-color="#0f2029" stop-opacity="1"></stop></linearGradient></defs><defs><linearGradient id="grad2_7" x1="0%" y1="0%" x2="66.7%" y2="100%"><stop offset="20%" stop-color="#00090f" stop-opacity="1"></stop><stop offset="80%" stop-color="#0f2029" stop-opacity="1"></stop></linearGradient></defs><g transform="translate(900, 0)"><path d="M0 486.7C-51.2 483.3 -102.4 479.9 -150.4 462.9C-198.5 445.9 -243.4 415.3 -272.7 375.4C-302.1 335.5 -315.8 286.4 -339.8 246.9C-363.8 207.3 -398 177.4 -424.2 137.8C-450.4 98.3 -468.6 49.1 -486.7 0L0 0Z" fill="#0a161c"></path><path d="M0 425.9C-44.8 422.9 -89.6 420 -131.6 405.1C-173.7 390.2 -213 363.4 -238.6 328.5C-264.3 293.6 -276.3 250.6 -297.3 216C-318.3 181.4 -348.2 155.2 -371.1 120.6C-394.1 86 -410 43 -425.9 0L0 0Z" fill="#122a36"></path><path d="M0 365.1C-38.4 362.5 -76.8 360 -112.8 347.2C-148.9 334.4 -182.5 311.4 -204.5 281.5C-226.6 251.6 -236.9 214.8 -254.8 185.2C-272.8 155.5 -298.5 133 -318.1 103.4C-337.8 73.7 -351.4 36.9 -365.1 0L0 0Z" fill="#173f53"></path><path d="M0 304.2C-32 302.1 -64 300 -94 289.3C-124 278.7 -152.1 259.5 -170.5 234.6C-188.8 209.7 -197.4 179 -212.4 154.3C-227.4 129.6 -248.7 110.9 -265.1 86.1C-281.5 61.4 -292.8 30.7 -304.2 0L0 0Z" fill="#195571"></path><path d="M0 243.4C-25.6 241.7 -51.2 240 -75.2 231.5C-99.2 223 -121.7 207.6 -136.4 187.7C-151 167.8 -157.9 143.2 -169.9 123.4C-181.9 103.7 -199 88.7 -212.1 68.9C-225.2 49.1 -234.3 24.6 -243.4 0L0 0Z" fill="#196d90"></path><path d="M0 182.5C-19.2 181.3 -38.4 180 -56.4 173.6C-74.4 167.2 -91.3 155.7 -102.3 140.8C-113.3 125.8 -118.4 107.4 -127.4 92.6C-136.4 77.8 -149.2 66.5 -159.1 51.7C-168.9 36.9 -175.7 18.4 -182.5 0L0 0Z" fill="#1685b1"></path><path d="M0 121.7C-12.8 120.8 -25.6 120 -37.6 115.7C-49.6 111.5 -60.8 103.8 -68.2 93.8C-75.5 83.9 -79 71.6 -84.9 61.7C-90.9 51.8 -99.5 44.3 -106 34.5C-112.6 24.6 -117.1 12.3 -121.7 0L0 0Z" fill="#0b9ed3"></path><path d="M0 60.8C-6.4 60.4 -12.8 60 -18.8 57.9C-24.8 55.7 -30.4 51.9 -34.1 46.9C-37.8 41.9 -39.5 35.8 -42.5 30.9C-45.5 25.9 -49.7 22.2 -53 17.2C-56.3 12.3 -58.6 6.1 -60.8 0L0 0Z" fill="#00abe4"></path></g><g transform="translate(0, 600)"><path d="M0 -486.7C48.8 -475.9 97.6 -465 146.8 -451.8C196 -438.5 245.6 -423 286.1 -393.8C326.6 -364.6 358.1 -321.7 382.7 -278C407.3 -234.3 425.1 -189.9 441.3 -143.4C457.5 -96.9 472.1 -48.5 486.7 0L0 0Z" fill="#0a161c"></path><path d="M0 -425.9C42.7 -416.4 85.4 -406.8 128.4 -395.3C171.5 -383.7 214.9 -370.1 250.3 -344.6C285.8 -319 313.3 -281.5 334.8 -243.3C356.4 -205 371.9 -166.1 386.1 -125.5C400.3 -84.8 413.1 -42.4 425.9 0L0 0Z" fill="#122a36"></path><path d="M0 -365.1C36.6 -356.9 73.2 -348.7 110.1 -338.8C147 -328.9 184.2 -317.2 214.6 -295.3C245 -273.4 268.5 -241.3 287 -208.5C305.5 -175.8 318.8 -142.4 331 -107.5C343.1 -72.7 354.1 -36.3 365.1 0L0 0Z" fill="#173f53"></path><path d="M0 -304.2C30.5 -297.4 61 -290.6 91.7 -282.3C122.5 -274.1 153.5 -264.4 178.8 -246.1C204.1 -227.9 223.8 -201.1 239.2 -173.8C254.5 -146.5 265.7 -118.7 275.8 -89.6C285.9 -60.6 295.1 -30.3 304.2 0L0 0Z" fill="#195571"></path><path d="M0 -243.4C24.4 -237.9 48.8 -232.5 73.4 -225.9C98 -219.3 122.8 -211.5 143.1 -196.9C163.3 -182.3 179 -160.9 191.3 -139C203.6 -117.2 212.5 -94.9 220.6 -71.7C228.8 -48.5 236.1 -24.2 243.4 0L0 0Z" fill="#196d90"></path><path d="M0 -182.5C18.3 -178.4 36.6 -174.4 55 -169.4C73.5 -164.5 92.1 -158.6 107.3 -147.7C122.5 -136.7 134.3 -120.6 143.5 -104.3C152.7 -87.9 159.4 -71.2 165.5 -53.8C171.6 -36.3 177 -18.2 182.5 0L0 0Z" fill="#1685b1"></path><path d="M0 -121.7C12.2 -119 24.4 -116.2 36.7 -112.9C49 -109.6 61.4 -105.7 71.5 -98.4C81.7 -91.1 89.5 -80.4 95.7 -69.5C101.8 -58.6 106.3 -47.5 110.3 -35.8C114.4 -24.2 118 -12.1 121.7 0L0 0Z" fill="#0b9ed3"></path><path d="M0 -60.8C6.1 -59.5 12.2 -58.1 18.3 -56.5C24.5 -54.8 30.7 -52.9 35.8 -49.2C40.8 -45.6 44.8 -40.2 47.8 -34.8C50.9 -29.3 53.1 -23.7 55.2 -17.9C57.2 -12.1 59 -6.1 60.8 0L0 0Z" fill="#00abe4"></path></g></svg>