<svg id="visual" viewBox="0 0 900 600" width="900" height="600" xmlns="http://www.w3.org/2000/svg" xmlns:xlink="http://www.w3.org/1999/xlink" version="1.1"><path d="M0 97L47 97L47 103L95 103L95 97L142 97L142 73L189 73L189 103L237 103L237 67L284 67L284 85L332 85L332 67L379 67L379 97L426 97L426 85L474 85L474 73L521 73L521 73L568 73L568 67L616 67L616 61L663 61L663 97L711 97L711 79L758 79L758 91L805 91L805 85L853 85L853 103L900 103L900 73L900 0L900 0L853 0L853 0L805 0L805 0L758 0L758 0L711 0L711 0L663 0L663 0L616 0L616 0L568 0L568 0L521 0L521 0L474 0L474 0L426 0L426 0L379 0L379 0L332 0L332 0L284 0L284 0L237 0L237 0L189 0L189 0L142 0L142 0L95 0L95 0L47 0L47 0L0 0Z" fill="#4c1b7e"></path><path d="M0 223L47 223L47 235L95 235L95 229L142 229L142 229L189 229L189 223L237 223L237 199L284 199L284 235L332 235L332 247L379 247L379 259L426 259L426 235L474 235L474 193L521 193L521 241L568 241L568 181L616 181L616 217L663 217L663 199L711 199L711 217L758 217L758 211L805 211L805 235L853 235L853 217L900 217L900 271L900 71L900 101L853 101L853 83L805 83L805 89L758 89L758 77L711 77L711 95L663 95L663 59L616 59L616 65L568 65L568 71L521 71L521 71L474 71L474 83L426 83L426 95L379 95L379 65L332 65L332 83L284 83L284 65L237 65L237 101L189 101L189 71L142 71L142 95L95 95L95 101L47 101L47 95L0 95Z" fill="#642e9b"></path><path d="M0 271L47 271L47 313L95 313L95 271L142 271L142 277L189 277L189 283L237 283L237 247L284 247L284 289L332 289L332 295L379 295L379 331L426 331L426 301L474 301L474 247L521 247L521 313L568 313L568 241L616 241L616 283L663 283L663 253L711 253L711 259L758 259L758 265L805 265L805 289L853 289L853 259L900 259L900 349L900 269L900 215L853 215L853 233L805 233L805 209L758 209L758 215L711 215L711 197L663 197L663 215L616 215L616 179L568 179L568 239L521 239L521 191L474 191L474 233L426 233L426 257L379 257L379 245L332 245L332 233L284 233L284 197L237 197L237 221L189 221L189 227L142 227L142 227L95 227L95 233L47 233L47 221L0 221Z" fill="#7d41b9"></path><path d="M0 307L47 307L47 349L95 349L95 319L142 319L142 313L189 313L189 337L237 337L237 283L284 283L284 325L332 325L332 349L379 349L379 373L426 373L426 355L474 355L474 289L521 289L521 355L568 355L568 271L616 271L616 337L663 337L663 301L711 301L711 289L758 289L758 319L805 319L805 325L853 325L853 307L900 307L900 379L900 347L900 257L853 257L853 287L805 287L805 263L758 263L758 257L711 257L711 251L663 251L663 281L616 281L616 239L568 239L568 311L521 311L521 245L474 245L474 299L426 299L426 329L379 329L379 293L332 293L332 287L284 287L284 245L237 245L237 281L189 281L189 275L142 275L142 269L95 269L95 311L47 311L47 269L0 269Z" fill="#8749c5"></path><path d="M0 355L47 355L47 427L95 427L95 373L142 373L142 397L189 397L189 391L237 391L237 367L284 367L284 391L332 391L332 397L379 397L379 433L426 433L426 427L474 427L474 373L521 373L521 439L568 439L568 355L616 355L616 415L663 415L663 361L711 361L711 361L758 361L758 391L805 391L805 415L853 415L853 367L900 367L900 427L900 377L900 305L853 305L853 323L805 323L805 317L758 317L758 287L711 287L711 299L663 299L663 335L616 335L616 269L568 269L568 353L521 353L521 287L474 287L474 353L426 353L426 371L379 371L379 347L332 347L332 323L284 323L284 281L237 281L237 335L189 335L189 311L142 311L142 317L95 317L95 347L47 347L47 305L0 305Z" fill="#7d41b9"></path><path d="M0 547L47 547L47 559L95 559L95 553L142 553L142 565L189 565L189 541L237 541L237 559L284 559L284 535L332 535L332 553L379 553L379 535L426 535L426 553L474 553L474 535L521 535L521 541L568 541L568 541L616 541L616 559L663 559L663 559L711 559L711 547L758 547L758 541L805 541L805 535L853 535L853 541L900 541L900 559L900 425L900 365L853 365L853 413L805 413L805 389L758 389L758 359L711 359L711 359L663 359L663 413L616 413L616 353L568 353L568 437L521 437L521 371L474 371L474 425L426 425L426 431L379 431L379 395L332 395L332 389L284 389L284 365L237 365L237 389L189 389L189 395L142 395L142 371L95 371L95 425L47 425L47 353L0 353Z" fill="#642e9b"></path><path d="M0 601L47 601L47 601L95 601L95 601L142 601L142 601L189 601L189 601L237 601L237 601L284 601L284 601L332 601L332 601L379 601L379 601L426 601L426 601L474 601L474 601L521 601L521 601L568 601L568 601L616 601L616 601L663 601L663 601L711 601L711 601L758 601L758 601L805 601L805 601L853 601L853 601L900 601L900 601L900 557L900 539L853 539L853 533L805 533L805 539L758 539L758 545L711 545L711 557L663 557L663 557L616 557L616 539L568 539L568 539L521 539L521 533L474 533L474 551L426 551L426 533L379 533L379 551L332 551L332 533L284 533L284 557L237 557L237 539L189 539L189 563L142 563L142 551L95 551L95 557L47 557L47 545L0 545Z" fill="#4c1b7e"></path></svg>